<svg width="32" height="33" viewBox="0 0 32 33" fill="none" xmlns="http://www.w3.org/2000/svg">
<path fill-rule="evenodd" clip-rule="evenodd" d="M16 0.238281C7.16344 0.238281 0 7.40892 0 16.2544C0 25.0998 7.16344 32.2704 16 32.2704C24.8366 32.2704 32 25.0998 32 16.2544C32 7.40892 24.8366 0.238281 16 0.238281ZM7.68108 13.5035H11.307V24.4089H7.68108V13.5035ZM11.5458 10.13C11.5223 9.06074 10.7584 8.24632 9.51802 8.24632C8.27761 8.24632 7.46667 9.06074 7.46667 10.13C7.46667 11.1771 8.25364 12.015 9.47095 12.015H9.49413C10.7584 12.015 11.5458 11.1771 11.5458 10.13ZM20.2088 13.2474C22.5948 13.2474 24.3836 14.8064 24.3836 18.1561L24.3834 24.4089H20.7576V18.5745C20.7576 17.109 20.2329 16.109 18.9203 16.109C17.9186 16.109 17.3219 16.7832 17.0599 17.4343C16.964 17.6677 16.9405 17.9928 16.9405 18.3187V24.4092H13.3141C13.3141 24.4092 13.3619 14.5271 13.3141 13.5038H16.9405V15.0484C17.4217 14.3059 18.2836 13.2474 20.2088 13.2474Z" fill="#2E1E25"/>
</svg>
