<svg width="33" height="33" viewBox="0 0 33 33" fill="none" xmlns="http://www.w3.org/2000/svg">
<path fill-rule="evenodd" clip-rule="evenodd" d="M21.8454 0.171631H12.0218C3.05639 0.171631 0.933594 2.29656 0.933594 11.271V21.1044C0.933594 30.0788 3.05639 32.2038 12.0218 32.2038H21.8454C30.8108 32.2038 32.9336 30.0788 32.9336 21.1044V11.271C32.9336 2.29656 30.8108 0.171631 21.8454 0.171631ZM26.4297 10.3441C27.1298 10.3441 27.2879 10.7058 27.1298 11.2031C26.8831 12.3429 24.8344 15.3663 24.1998 16.3027C24.0793 16.4806 24.0098 16.5832 24.0134 16.5832C23.7649 16.9901 23.6746 17.171 24.0134 17.6231C24.1358 17.7902 24.3955 18.0453 24.6922 18.3368C24.9975 18.6366 25.3419 18.975 25.6167 19.2959C26.6104 20.4262 27.3782 21.3756 27.5815 22.0312C27.7621 22.6867 27.446 23.0258 26.7685 23.0258H24.4424C23.826 23.0258 23.5083 22.6715 22.8311 21.9163C22.5407 21.5924 22.1843 21.1949 21.7099 20.7201C20.3323 19.3863 19.7226 19.2055 19.3839 19.2055C18.9096 19.2055 18.7741 19.3185 18.7741 19.9967V22.099C18.7741 22.6641 18.5935 23.0032 17.103 23.0032C14.6414 23.0032 11.9089 21.5113 9.98937 18.7308C7.09875 14.6618 6.30835 11.5874 6.30835 10.977C6.30835 10.638 6.42126 10.3215 7.09875 10.3215H9.44738C10.0345 10.3215 10.2604 10.5701 10.4862 11.2257C11.6379 14.5487 13.5575 17.4648 14.3479 17.4648C14.6414 17.4648 14.7769 17.3292 14.7769 16.5832V13.1472C14.7212 12.1705 14.3815 11.745 14.1297 11.4294C13.9735 11.2337 13.851 11.0803 13.851 10.864C13.851 10.5927 14.0769 10.3215 14.4382 10.3215H18.0966C18.5935 10.3215 18.7741 10.5927 18.7741 11.1805V15.8146C18.7741 16.312 18.9774 16.4928 19.1354 16.4928C19.429 16.4928 19.6774 16.312 20.2194 15.7694C21.8906 13.8932 23.0875 10.9996 23.0875 10.9996C23.2455 10.6606 23.5165 10.3441 24.1037 10.3441H26.4297Z" fill="#2E1E25"/>
</svg>
