<svg width="72" height="12" viewBox="0 0 72 12" fill="none" xmlns="http://www.w3.org/2000/svg">
<path opacity="0.5" d="M72 5.99999L67 3.11324L67 8.88675L72 5.99999ZM4.37114e-08 6.5L3 6.5L3 5.5L-4.37114e-08 5.5L4.37114e-08 6.5ZM9 6.5L15 6.5L15 5.5L9 5.5L9 6.5ZM21 6.5L27 6.5L27 5.5L21 5.5L21 6.5ZM33 6.5L39 6.5L39 5.5L33 5.5L33 6.5ZM45 6.5L51 6.5L51 5.5L45 5.5L45 6.5ZM57 6.5L63 6.49999L63 5.49999L57 5.5L57 6.5ZM72 5.99999L62 0.226492L62 11.7735L72 5.99999ZM8.74228e-08 7L3 7L3 5L-8.74228e-08 5L8.74228e-08 7ZM9 7L15 7L15 5L9 5L9 7ZM21 7L27 7L27 5L21 5L21 7ZM33 7L39 7L39 5L33 5L33 7ZM45 7L51 7L51 5L45 5L45 7ZM57 7L63 6.99999L63 4.99999L57 5L57 7Z" fill="#212121"/>
</svg>
