<svg width="32" height="33" viewBox="0 0 32 33" fill="none" xmlns="http://www.w3.org/2000/svg">
<g opacity="0.87">
<path fill-rule="evenodd" clip-rule="evenodd" d="M16 0C7.16344 0 0 7.17064 0 16.0161C0 24.8615 7.16344 32.0321 16 32.0321C24.8366 32.0321 32 24.8615 32 16.0161C32 7.17064 24.8366 0 16 0ZM7.68108 13.2652H11.307V24.1706H7.68108V13.2652ZM11.5458 9.89173C11.5223 8.82246 10.7584 8.00804 9.51802 8.00804C8.27761 8.00804 7.46667 8.82246 7.46667 9.89173C7.46667 10.9388 8.25364 11.7767 9.47095 11.7767H9.49413C10.7584 11.7767 11.5458 10.9388 11.5458 9.89173ZM20.2088 13.0091C22.5948 13.0091 24.3836 14.5681 24.3836 17.9178L24.3834 24.1706H20.7576V18.3362C20.7576 16.8707 20.2329 15.8707 18.9203 15.8707C17.9186 15.8707 17.3219 16.5449 17.0599 17.196C16.964 17.4294 16.9405 17.7545 16.9405 18.0804V24.1709H13.3141C13.3141 24.1709 13.3619 14.2888 13.3141 13.2655H16.9405V14.8102C17.4217 14.0676 18.2836 13.0091 20.2088 13.0091Z" fill="#2E1E25"/>
</g>
</svg>
