<svg width="580" height="16" viewBox="0 0 580 16" fill="none" xmlns="http://www.w3.org/2000/svg">
<path d="M579.354 8.35355C579.549 8.15829 579.549 7.84171 579.354 7.64645L576.172 4.46447C575.976 4.2692 575.66 4.2692 575.464 4.46447C575.269 4.65973 575.269 4.97631 575.464 5.17157L578.293 8L575.464 10.8284C575.269 11.0237 575.269 11.3403 575.464 11.5355C575.66 11.7308 575.976 11.7308 576.172 11.5355L579.354 8.35355ZM0 8.5H3.01562V7.5H0V8.5ZM9.04688 8.5H15.0781V7.5H9.04688V8.5ZM21.1094 8.5H27.1406V7.5H21.1094V8.5ZM33.1719 8.5H39.2031V7.5H33.1719V8.5ZM45.2344 8.5H51.2656V7.5H45.2344V8.5ZM57.2969 8.5H63.3281V7.5H57.2969V8.5ZM69.3594 8.5H75.3906V7.5H69.3594V8.5ZM81.4219 8.5H87.4531V7.5H81.4219V8.5ZM93.4844 8.5H99.5156V7.5H93.4844V8.5ZM105.547 8.5H111.578V7.5H105.547V8.5ZM117.609 8.5H123.641V7.5H117.609V8.5ZM129.672 8.5H135.703V7.5H129.672V8.5ZM141.734 8.5H147.766V7.5H141.734V8.5ZM153.797 8.5H159.828V7.5H153.797V8.5ZM165.859 8.5H171.891V7.5H165.859V8.5ZM177.922 8.5H183.953V7.5H177.922V8.5ZM189.984 8.5H196.016V7.5H189.984V8.5ZM202.047 8.5H208.078V7.5H202.047V8.5ZM214.109 8.5H220.141V7.5H214.109V8.5ZM226.172 8.5H232.203V7.5H226.172V8.5ZM238.234 8.5H244.266V7.5H238.234V8.5ZM250.297 8.5H256.328V7.5H250.297V8.5ZM262.359 8.5H268.391V7.5H262.359V8.5ZM274.422 8.5H280.453V7.5H274.422V8.5ZM286.484 8.5H292.516V7.5H286.484V8.5ZM298.547 8.5H304.578V7.5H298.547V8.5ZM310.609 8.5H316.641V7.5H310.609V8.5ZM322.672 8.5H328.703V7.5H322.672V8.5ZM334.734 8.5H340.766V7.5H334.734V8.5ZM346.797 8.5H352.828V7.5H346.797V8.5ZM358.859 8.5H364.891V7.5H358.859V8.5ZM370.922 8.5H376.953V7.5H370.922V8.5ZM382.984 8.5H389.016V7.5H382.984V8.5ZM395.047 8.5H401.078V7.5H395.047V8.5ZM407.109 8.5H413.141V7.5H407.109V8.5ZM419.172 8.5H425.203V7.5H419.172V8.5ZM431.234 8.5H437.266V7.5H431.234V8.5ZM443.297 8.5H449.328V7.5H443.297V8.5ZM455.359 8.5H461.391V7.5H455.359V8.5ZM467.422 8.5H473.453V7.5H467.422V8.5ZM479.484 8.5H485.516V7.5H479.484V8.5ZM491.547 8.5H497.578V7.5H491.547V8.5ZM503.609 8.5H509.641V7.5H503.609V8.5ZM515.672 8.5H521.703V7.5H515.672V8.5ZM527.734 8.5H533.766V7.5H527.734V8.5ZM539.797 8.5H545.828V7.5H539.797V8.5ZM551.859 8.5H557.891V7.5H551.859V8.5ZM563.922 8.5H569.953V7.5H563.922V8.5ZM575.984 8.5H579V7.5H575.984V8.5ZM579.707 8.70711C580.098 8.31658 580.098 7.68342 579.707 7.29289L573.343 0.928932C572.953 0.538408 572.319 0.538408 571.929 0.928932C571.538 1.31946 571.538 1.95262 571.929 2.34315L577.586 8L571.929 13.6569C571.538 14.0474 571.538 14.6805 571.929 15.0711C572.319 15.4616 572.953 15.4616 573.343 15.0711L579.707 8.70711ZM0 9H3.01562V7H0V9ZM9.04688 9H15.0781V7H9.04688V9ZM21.1094 9H27.1406V7H21.1094V9ZM33.1719 9H39.2031V7H33.1719V9ZM45.2344 9H51.2656V7H45.2344V9ZM57.2969 9H63.3281V7H57.2969V9ZM69.3594 9H75.3906V7H69.3594V9ZM81.4219 9H87.4531V7H81.4219V9ZM93.4844 9H99.5156V7H93.4844V9ZM105.547 9H111.578V7H105.547V9ZM117.609 9H123.641V7H117.609V9ZM129.672 9H135.703V7H129.672V9ZM141.734 9H147.766V7H141.734V9ZM153.797 9H159.828V7H153.797V9ZM165.859 9H171.891V7H165.859V9ZM177.922 9H183.953V7H177.922V9ZM189.984 9H196.016V7H189.984V9ZM202.047 9H208.078V7H202.047V9ZM214.109 9H220.141V7H214.109V9ZM226.172 9H232.203V7H226.172V9ZM238.234 9H244.266V7H238.234V9ZM250.297 9H256.328V7H250.297V9ZM262.359 9H268.391V7H262.359V9ZM274.422 9H280.453V7H274.422V9ZM286.484 9H292.516V7H286.484V9ZM298.547 9H304.578V7H298.547V9ZM310.609 9H316.641V7H310.609V9ZM322.672 9H328.703V7H322.672V9ZM334.734 9H340.766V7H334.734V9ZM346.797 9H352.828V7H346.797V9ZM358.859 9H364.891V7H358.859V9ZM370.922 9H376.953V7H370.922V9ZM382.984 9H389.016V7H382.984V9ZM395.047 9H401.078V7H395.047V9ZM407.109 9H413.141V7H407.109V9ZM419.172 9H425.203V7H419.172V9ZM431.234 9H437.266V7H431.234V9ZM443.297 9H449.328V7H443.297V9ZM455.359 9H461.391V7H455.359V9ZM467.422 9H473.453V7H467.422V9ZM479.484 9H485.516V7H479.484V9ZM491.547 9H497.578V7H491.547V9ZM503.609 9H509.641V7H503.609V9ZM515.672 9H521.703V7H515.672V9ZM527.734 9H533.766V7H527.734V9ZM539.797 9H545.828V7H539.797V9ZM551.859 9H557.891V7H551.859V9ZM563.922 9H569.953V7H563.922V9ZM575.984 9H579V7H575.984V9Z" fill="#2E1E25"/>
</svg>
