<svg width="22" height="22" viewBox="0 0 22 22" fill="none" xmlns="http://www.w3.org/2000/svg">
<g opacity="0.5">
<circle cx="11" cy="11" r="10.5" transform="rotate(-180 11 11)" stroke="black"/>
<path d="M6 11L8.5 12.4434L8.5 9.55662L6 11ZM15 10.75L13.875 10.75V11.25L15 11.25L15 10.75ZM11.625 10.75L9.375 10.75V11.25L11.625 11.25V10.75ZM6 11L11 13.8868L11 8.11325L6 11ZM15 10.5L13.875 10.5L13.875 11.5L15 11.5L15 10.5ZM11.625 10.5L9.375 10.5L9.375 11.5L11.625 11.5L11.625 10.5Z" fill="#212121"/>
</g>
</svg>
