<svg width="48" height="49" viewBox="0 0 48 49" fill="none" xmlns="http://www.w3.org/2000/svg">
<path fill-rule="evenodd" clip-rule="evenodd" d="M24 0.253052C10.7452 0.253052 0 11.009 0 24.2772C0 37.5453 10.7452 48.3013 24 48.3013C37.2548 48.3013 48 37.5453 48 24.2772C48 11.009 37.2548 0.253052 24 0.253052ZM18.5233 11.3412C19.8886 11.279 20.3249 11.2638 23.8012 11.2638H23.7972C27.2746 11.2638 27.7092 11.279 29.0746 11.3412C30.4373 11.4037 31.3679 11.6196 32.184 11.9365C33.0266 12.2635 33.7386 12.7013 34.4506 13.414C35.1627 14.1262 35.6 14.841 35.928 15.6837C36.2427 16.4984 36.4587 17.4295 36.5227 18.7936C36.584 20.1603 36.6 20.597 36.6 24.0768C36.6 27.5566 36.584 27.9922 36.5227 29.3589C36.4587 30.7225 36.2427 31.6538 35.928 32.4688C35.6 33.3112 35.1627 34.0261 34.4506 34.7383C33.7394 35.451 33.0264 35.8898 32.1848 36.2171C31.3703 36.534 30.4391 36.7499 29.0765 36.8124C27.7111 36.8746 27.2762 36.8898 23.7996 36.8898C20.3236 36.8898 19.8876 36.8746 18.5222 36.8124C17.1598 36.7499 16.2294 36.534 15.415 36.2171C14.5736 35.8898 13.8595 35.451 13.1483 34.7383C12.4365 34.0261 11.9992 33.3112 11.672 32.4685C11.3557 31.6538 11.14 30.7227 11.0773 29.3587C11.0155 27.992 11 27.5566 11 24.0768C11 20.597 11.016 20.16 11.0771 18.7933C11.1384 17.4298 11.3544 16.4984 11.6717 15.6835C11.9997 14.841 12.4371 14.1262 13.1491 13.414C13.8606 12.7015 14.5747 12.2637 15.4166 11.9365C16.2305 11.6196 17.1606 11.4037 18.5233 11.3412Z" fill="#2E1E25"/>
<path fill-rule="evenodd" clip-rule="evenodd" d="M22.853 13.7729C23.0759 13.7725 23.3158 13.7726 23.5746 13.7727L24.0013 13.7729C27.4189 13.7729 27.824 13.7851 29.1736 13.8465C30.4216 13.9037 31.0989 14.1124 31.5501 14.2878C32.1475 14.52 32.5733 14.7976 33.0211 15.2461C33.4691 15.6945 33.7464 16.1216 33.979 16.7196C34.1542 17.1707 34.363 17.8487 34.4198 19.098C34.4811 20.4487 34.4944 20.8544 34.4944 24.2739C34.4944 27.6934 34.4811 28.0991 34.4198 29.4498C34.3627 30.6991 34.1542 31.3771 33.979 31.8282C33.747 32.4262 33.4691 32.8519 33.0211 33.3001C32.5731 33.7486 32.1477 34.0262 31.5501 34.2584C31.0995 34.4346 30.4216 34.6428 29.1736 34.6999C27.8242 34.7613 27.4189 34.7747 24.0013 34.7747C20.5834 34.7747 20.1783 34.7613 18.8289 34.6999C17.5809 34.6423 16.9036 34.4335 16.4521 34.2582C15.8548 34.0259 15.4281 33.7483 14.9801 33.2999C14.5321 32.8514 14.2548 32.4254 14.0222 31.8272C13.847 31.376 13.6382 30.698 13.5814 29.4487C13.5201 28.098 13.5078 27.6923 13.5078 24.2707C13.5078 20.8491 13.5201 20.4455 13.5814 19.0948C13.6385 17.8455 13.847 17.1675 14.0222 16.7158C14.2542 16.1179 14.5321 15.6908 14.9801 15.2423C15.4281 14.7939 15.8548 14.5163 16.4521 14.2835C16.9033 14.1073 17.5809 13.8991 18.8289 13.8417C20.0097 13.7883 20.4674 13.7723 22.853 13.7697V13.7729ZM30.8339 15.9001C29.9859 15.9001 29.2979 16.5878 29.2979 17.4368C29.2979 18.2855 29.9859 18.974 30.8339 18.974C31.6819 18.974 32.3699 18.2855 32.3699 17.4368C32.3699 16.5881 31.6819 15.8995 30.8339 15.8995V15.9001ZM17.4279 24.2764C17.4279 20.6427 20.3709 17.6966 24.001 17.6964C27.6312 17.6964 30.5736 20.6426 30.5736 24.2764C30.5736 27.9102 27.6314 30.8551 24.0013 30.8551C20.3711 30.8551 17.4279 27.9102 17.4279 24.2764Z" fill="#2E1E25"/>
<path d="M24.0011 20.006C26.3574 20.006 28.2678 21.9181 28.2678 24.277C28.2678 26.6356 26.3574 28.548 24.0011 28.548C21.6445 28.548 19.7344 26.6356 19.7344 24.277C19.7344 21.9181 21.6445 20.006 24.0011 20.006Z" fill="#2E1E25"/>
</svg>
