<svg width="48" height="49" viewBox="0 0 48 49" fill="none" xmlns="http://www.w3.org/2000/svg">
<path fill-rule="evenodd" clip-rule="evenodd" d="M48 24.0501C48 37.3183 37.2548 48.0742 24 48.0742C10.7452 48.0742 0 37.3183 0 24.0501C0 10.782 10.7452 0.026001 24 0.026001C37.2548 0.026001 48 10.782 48 24.0501ZM16.0715 21.8494C13.6673 22.9002 11.1971 23.9798 8.93825 25.2252L8.93809 25.2254C7.75861 26.0899 9.32638 26.7013 10.7971 27.2748C11.0309 27.366 11.2622 27.4562 11.4797 27.5464C11.6607 27.602 11.8447 27.6607 12.0312 27.7202C13.6669 28.2418 15.4907 28.8235 17.0787 27.9485C19.6873 26.4485 22.149 24.7144 24.6089 22.9815C25.4148 22.4138 26.2205 21.8462 27.0311 21.287C27.0691 21.2627 27.1119 21.2349 27.1588 21.2045C27.8493 20.7564 29.4024 19.7487 28.8279 21.1372C27.4695 22.6243 26.0144 23.9407 24.5515 25.2643C23.5655 26.1563 22.5759 27.0516 21.6099 28.0045C20.7686 28.6888 19.8949 30.0649 20.837 31.0232C23.0069 32.5438 25.2108 34.0275 27.4133 35.5104C28.13 35.9929 28.8466 36.4753 29.5618 36.9589C30.774 37.9277 32.6685 37.1441 32.935 35.6302C33.0535 34.9339 33.1725 34.2375 33.2915 33.5412C33.9491 29.6926 34.6069 25.8426 35.188 21.9815C35.267 21.3759 35.3565 20.7702 35.4461 20.1643C35.6632 18.6957 35.8806 17.2253 35.9485 15.7489C35.7735 14.2754 33.9887 14.5994 32.9955 14.9307C27.8903 16.8753 22.8361 18.964 17.8019 21.0895C17.2316 21.3424 16.6535 21.5951 16.0715 21.8494Z" fill="#2E1E25"/>
</svg>
