<svg width="23" height="23" viewBox="0 0 23 23" fill="none" xmlns="http://www.w3.org/2000/svg">
<path fill-rule="evenodd" clip-rule="evenodd" d="M15.3319 0.954102H8.57822C2.4145 0.954102 0.955078 2.41352 0.955078 8.57725V15.331C0.955078 21.4947 2.4145 22.9541 8.57822 22.9541H15.3319C21.4957 22.9541 22.9551 21.4947 22.9551 15.331V8.57725C22.9551 2.41352 21.4957 0.954102 15.3319 0.954102ZM18.4836 7.94082C18.9649 7.94082 19.0736 8.18923 18.9649 8.5308C18.7953 9.3136 17.3868 11.3901 16.9505 12.0333C16.8677 12.1555 16.8199 12.2259 16.8223 12.2259C16.6516 12.5054 16.5895 12.6296 16.8223 12.9401C16.9065 13.0549 17.0851 13.2301 17.2891 13.4303C17.4989 13.6362 17.7357 13.8686 17.9247 14.089C18.6078 14.8653 19.1357 15.5174 19.2754 15.9676C19.3996 16.4179 19.1823 16.6508 18.7165 16.6508H17.1173C16.6935 16.6508 16.4751 16.4074 16.0095 15.8887C15.8099 15.6663 15.5649 15.3933 15.2387 15.0671C14.2916 14.1511 13.8724 14.0269 13.6396 14.0269C13.3135 14.0269 13.2204 14.1045 13.2204 14.5703V16.0142C13.2204 16.4024 13.0962 16.6352 12.0715 16.6352C10.3792 16.6352 8.50053 15.6105 7.18085 13.7009C5.19355 10.9062 4.65015 8.79473 4.65015 8.37554C4.65015 8.14265 4.72778 7.92529 5.19355 7.92529H6.80823C7.2119 7.92529 7.36715 8.09608 7.52241 8.54632C8.31423 10.8286 9.63391 12.8314 10.1773 12.8314C10.3792 12.8314 10.4723 12.7383 10.4723 12.2259V9.86601C10.434 9.19523 10.2005 8.90297 10.0273 8.68625C9.91993 8.55184 9.83575 8.44649 9.83575 8.29791C9.83575 8.1116 9.99101 7.92529 10.2394 7.92529H12.7546C13.0962 7.92529 13.2204 8.1116 13.2204 8.51527V11.6981C13.2204 12.0396 13.3601 12.1638 13.4688 12.1638C13.6706 12.1638 13.8414 12.0396 14.214 11.667C15.3629 10.3784 16.1858 8.39107 16.1858 8.39107C16.2945 8.15818 16.4808 7.94082 16.8844 7.94082H18.4836Z" fill="#4B2B45"/>
</svg>
