<svg width="27" height="27" viewBox="0 0 27 27" fill="none" xmlns="http://www.w3.org/2000/svg">
<path fill-rule="evenodd" clip-rule="evenodd" d="M17.9361 0.945801H9.95449C2.67008 0.945801 0.945312 2.67057 0.945312 9.95497V17.9366C0.945312 25.221 2.67008 26.9458 9.95449 26.9458H17.9361C25.2205 26.9458 26.9453 25.221 26.9453 17.9366V9.95497C26.9453 2.67057 25.2205 0.945801 17.9361 0.945801ZM21.6609 9.20268C22.2297 9.20268 22.3582 9.49626 22.2297 9.89993C22.0293 10.8251 20.3647 13.2791 19.8491 14.0392C19.7512 14.1836 19.6947 14.2669 19.6976 14.2669C19.4958 14.5972 19.4224 14.744 19.6976 15.1109C19.7971 15.2466 20.0081 15.4536 20.2492 15.6902C20.4972 15.9336 20.7771 16.2082 21.0004 16.4687C21.8077 17.3862 22.4316 18.1568 22.5967 18.6889C22.7435 19.221 22.4866 19.4963 21.9362 19.4963H20.0462C19.5454 19.4963 19.2872 19.2086 18.737 18.5956C18.5011 18.3328 18.2115 18.0101 17.8261 17.6247C16.7068 16.5421 16.2114 16.3953 15.9362 16.3953C15.5508 16.3953 15.4407 16.4871 15.4407 17.0375V18.744C15.4407 19.2027 15.294 19.4779 14.0829 19.4779C12.0829 19.4779 9.86276 18.2669 8.30313 16.01C5.9545 12.7073 5.3123 10.2119 5.3123 9.71644C5.3123 9.44121 5.40404 9.18433 5.9545 9.18433H7.86276C8.33982 9.18433 8.52331 9.38617 8.7068 9.91828C9.64258 12.6155 11.2022 14.9825 11.8444 14.9825C12.0829 14.9825 12.193 14.8724 12.193 14.2669V11.4779C12.1477 10.6852 11.8718 10.3398 11.6671 10.0836C11.5402 9.9248 11.4407 9.80029 11.4407 9.6247C11.4407 9.40451 11.6242 9.18433 11.9178 9.18433H14.8903C15.294 9.18433 15.4407 9.40451 15.4407 9.88158V13.643C15.4407 14.0467 15.6059 14.1935 15.7343 14.1935C15.9729 14.1935 16.1747 14.0467 16.6151 13.6063C17.9729 12.0834 18.9453 9.73479 18.9453 9.73479C19.0738 9.45956 19.294 9.20268 19.771 9.20268H21.6609Z" fill="#EEEEEE"/>
</svg>
