<svg width="48" height="49" viewBox="0 0 48 49" fill="none" xmlns="http://www.w3.org/2000/svg">
<path fill-rule="evenodd" clip-rule="evenodd" d="M0 24.1385C0 37.4066 10.7452 48.1626 24 48.1626C37.2548 48.1626 48 37.4066 48 24.1385C48 10.8703 37.2548 0.11438 24 0.11438C10.7452 0.11438 0 10.8703 0 24.1385ZM39.0622 23.2188C39.059 31.0935 32.6595 37.501 24.7911 37.5042H24.7852C22.3967 37.5033 20.0498 36.9035 17.9654 35.7654L10.4 37.7519L12.4246 30.3493C11.1758 28.1828 10.5186 25.7253 10.5197 23.2076C10.5228 15.3311 16.9248 8.92297 24.791 8.92297C28.6087 8.92462 32.1918 10.4123 34.8862 13.1126C37.5806 15.8127 39.0637 19.4018 39.0622 23.2188Z" fill="#2E1E25"/>
<path fill-rule="evenodd" clip-rule="evenodd" d="M13.826 34.3583L18.3154 33.1794L18.7485 33.4368C20.5697 34.5186 22.6573 35.091 24.7858 35.0918H24.7906C31.3284 35.0918 36.6495 29.7653 36.6521 23.2182C36.6533 20.0456 35.4207 17.0625 33.1812 14.8181C30.9417 12.5738 27.9635 11.3372 24.7953 11.3361C18.2525 11.3361 12.9313 16.6621 12.9287 23.2086C12.9278 25.4522 13.5549 27.6371 14.7423 29.5275L15.0243 29.9768L13.826 34.3583ZM31.4919 26.2947C31.7407 26.415 31.9086 26.4963 31.9803 26.6161C32.0694 26.7649 32.0694 27.4796 31.7724 28.3135C31.4752 29.1473 30.0506 29.9083 29.3654 30.0107C28.7511 30.1026 27.9737 30.141 27.1195 29.8692C26.6016 29.7048 25.9374 29.4851 25.0866 29.1174C21.7437 27.6724 19.4846 24.4292 19.0576 23.8162C19.0277 23.7732 19.0068 23.7432 18.9951 23.7276L18.9922 23.7238C18.8035 23.4717 17.539 21.7829 17.539 20.0351C17.539 18.3909 18.3459 17.5291 18.7173 17.1325C18.7427 17.1053 18.7661 17.0803 18.7871 17.0574C19.1139 16.7 19.5003 16.6107 19.738 16.6107C19.9757 16.6107 20.2137 16.6129 20.4214 16.6233C20.447 16.6246 20.4737 16.6244 20.5013 16.6243C20.7091 16.6231 20.9681 16.6215 21.2237 17.236C21.322 17.4725 21.4659 17.8231 21.6176 18.1928C21.9245 18.9406 22.2635 19.7668 22.3231 19.8864C22.4123 20.0651 22.4717 20.2735 22.3529 20.5118C22.335 20.5475 22.3185 20.5812 22.3028 20.6135C22.2135 20.7959 22.1478 20.9301 21.9963 21.1072C21.9367 21.1768 21.8751 21.2519 21.8135 21.327C21.6909 21.4765 21.5682 21.6261 21.4614 21.7326C21.2829 21.9106 21.097 22.1037 21.3051 22.461C21.5131 22.8184 22.2287 23.9872 23.2888 24.9338C24.4283 25.9512 25.4187 26.3812 25.9207 26.5992C26.0187 26.6417 26.0981 26.6762 26.1564 26.7054C26.5129 26.8841 26.7209 26.8542 26.9289 26.6161C27.1369 26.3779 27.8203 25.5738 28.058 25.2165C28.2957 24.8593 28.5335 24.9188 28.8603 25.0378C29.1872 25.1571 30.9403 26.0205 31.2969 26.1991C31.3665 26.234 31.4316 26.2655 31.4919 26.2947Z" fill="#2E1E25"/>
</svg>
