<svg width="22" height="22" viewBox="0 0 22 22" fill="none" xmlns="http://www.w3.org/2000/svg">
<path fill-rule="evenodd" clip-rule="evenodd" d="M11 22C17.0751 22 22 17.0751 22 11C22 4.92488 17.0751 0 11 0C4.92488 0 0 4.92488 0 11C0 17.0751 4.92488 22 11 22ZM7.21875 5.5L12.6019 5.50009V5.5C14.7548 5.5 16.5 7.2237 16.5 9.35C16.5 11.4763 14.7548 13.2 12.6019 13.2V13.2001H9.44625V16.5H7.21875V5.5Z" fill="#2E1E25"/>
<path d="M12.6019 11V11.0001H9.44629V7.7001H12.6019V7.70001C13.5246 7.70001 14.2725 8.43875 14.2725 9.35001C14.2725 10.2613 13.5246 11 12.6019 11Z" fill="#2E1E25"/>
</svg>
