<svg width="82" height="80" viewBox="0 0 82 80" fill="none" xmlns="http://www.w3.org/2000/svg">
<path d="M18.6106 42.3304C15.8683 41.987 15.8683 38.013 18.6106 37.6696C20.8256 37.3922 21.4406 34.4716 19.5254 33.3249C17.1557 31.906 18.8122 28.2887 21.4594 29.0768C23.6021 29.7147 25.3675 27.2965 24.0816 25.4675C22.4888 23.2018 25.4915 20.573 27.6 22.3688C29.3057 23.8217 31.9109 22.3347 31.487 20.1346C30.9607 17.403 34.777 16.1971 35.9746 18.7079C36.9406 20.733 39.9248 20.4269 40.4442 18.2441C41.0894 15.5328 45.074 15.9401 45.1343 18.7265C45.1829 20.9685 48.0406 21.881 49.4079 20.1035C51.1002 17.9034 54.5858 19.8602 53.4999 22.4146C52.6244 24.4744 54.86 26.4714 56.8274 25.4043C59.2577 24.0861 61.6426 27.2778 59.6163 29.1588C57.9793 30.6785 59.1958 33.4092 61.4219 33.2255C64.1741 32.9985 65.0233 36.8816 62.4123 37.7809C60.302 38.5078 60.302 41.4922 62.4123 42.2191C65.0233 43.1184 64.1741 47.0015 61.4219 46.7745C59.1958 46.5908 57.9793 49.3215 59.6163 50.8412C61.6426 52.7222 59.2577 55.9139 56.8274 54.5957C54.86 53.5286 52.6244 55.5256 53.4999 57.5854C54.5858 60.1398 51.1002 62.0965 49.4079 59.8965C48.0406 58.119 45.1829 59.0315 45.1343 61.2735C45.074 64.0599 41.0894 64.4672 40.4442 61.7559C39.9248 59.5731 36.9406 59.267 35.9746 61.2921C34.777 63.8029 30.9607 62.597 31.487 59.8654C31.9109 57.6653 29.3057 56.1783 27.6 57.6312C25.4915 59.427 22.4888 56.7982 24.0816 54.5325C25.3675 52.7035 23.6021 50.2853 21.4594 50.9232C18.8122 51.7113 17.1557 48.094 19.5254 46.6751C21.4406 45.5284 20.8256 42.6078 18.6106 42.3304Z" fill="#F6ACCB" fill-opacity="0.7"/>
<path d="M15.345 36.95C15.595 36.95 15.805 36.92 15.975 36.86C16.145 36.8 16.28 36.72 16.38 36.62C16.4833 36.52 16.5566 36.4033 16.6 36.27C16.6466 36.1367 16.67 35.995 16.67 35.845C16.67 35.6883 16.645 35.5483 16.595 35.425C16.545 35.2983 16.4666 35.1917 16.36 35.105C16.2533 35.015 16.115 34.9467 15.945 34.9C15.7783 34.8533 15.5766 34.83 15.34 34.83H13.985V36.95H15.345ZM13.985 31.81V33.9H15.055C15.515 33.9 15.8616 33.8167 16.095 33.65C16.3316 33.4833 16.45 33.2183 16.45 32.855C16.45 32.4783 16.3433 32.21 16.13 32.05C15.9166 31.89 15.5833 31.81 15.13 31.81H13.985ZM15.13 30.77C15.6033 30.77 16.0083 30.815 16.345 30.905C16.6816 30.995 16.9566 31.1233 17.17 31.29C17.3866 31.4567 17.545 31.6583 17.645 31.895C17.745 32.1317 17.795 32.3983 17.795 32.695C17.795 32.865 17.77 33.0283 17.72 33.185C17.67 33.3383 17.5916 33.4833 17.485 33.62C17.3816 33.7533 17.2483 33.875 17.085 33.985C16.925 34.095 16.7333 34.1883 16.51 34.265C17.5033 34.4883 18 35.025 18 35.875C18 36.1817 17.9416 36.465 17.825 36.725C17.7083 36.985 17.5383 37.21 17.315 37.4C17.0916 37.5867 16.8166 37.7333 16.49 37.84C16.1633 37.9467 15.79 38 15.37 38H12.64V30.77H15.13ZM21.742 36.95C21.992 36.95 22.2003 36.9233 22.367 36.87C22.537 36.8133 22.6737 36.7367 22.777 36.64C22.8803 36.5433 22.9537 36.43 22.997 36.3C23.0403 36.17 23.062 36.03 23.062 35.88C23.062 35.7167 23.0403 35.5683 22.997 35.435C22.9537 35.3017 22.8803 35.19 22.777 35.1C22.6737 35.0067 22.5387 34.935 22.372 34.885C22.2053 34.835 21.997 34.81 21.747 34.81H20.567V36.95H21.742ZM21.747 33.76C22.217 33.76 22.6187 33.8117 22.952 33.915C23.2887 34.0183 23.562 34.16 23.772 34.34C23.9853 34.5167 24.142 34.7267 24.242 34.97C24.342 35.21 24.392 35.4683 24.392 35.745C24.392 36.085 24.332 36.3933 24.212 36.67C24.0953 36.9467 23.9237 37.185 23.697 37.385C23.4703 37.5817 23.192 37.7333 22.862 37.84C22.5353 37.9467 22.162 38 21.742 38H19.222V30.77H20.567V33.76H21.747ZM26.797 38H25.447V30.77H26.797V38ZM32.8714 31.805H29.7614V38H28.4114V30.77H32.8714V31.805ZM40.4334 34.385C40.4334 34.915 40.3451 35.4067 40.1684 35.86C39.9951 36.31 39.7484 36.7 39.4284 37.03C39.1084 37.36 38.7234 37.6183 38.2734 37.805C37.8234 37.9883 37.3234 38.08 36.7734 38.08C36.2267 38.08 35.7284 37.9883 35.2784 37.805C34.8284 37.6183 34.4417 37.36 34.1184 37.03C33.7984 36.7 33.5501 36.31 33.3734 35.86C33.1967 35.4067 33.1084 34.915 33.1084 34.385C33.1084 33.855 33.1967 33.365 33.3734 32.915C33.5501 32.4617 33.7984 32.07 34.1184 31.74C34.4417 31.41 34.8284 31.1533 35.2784 30.97C35.7284 30.7833 36.2267 30.69 36.7734 30.69C37.1401 30.69 37.4851 30.7333 37.8084 30.82C38.1317 30.9033 38.4284 31.0233 38.6984 31.18C38.9684 31.3333 39.2101 31.5217 39.4234 31.745C39.6401 31.965 39.8234 32.2117 39.9734 32.485C40.1234 32.7583 40.2367 33.055 40.3134 33.375C40.3934 33.695 40.4334 34.0317 40.4334 34.385ZM39.0584 34.385C39.0584 33.9883 39.0051 33.6333 38.8984 33.32C38.7917 33.0033 38.6401 32.735 38.4434 32.515C38.2467 32.295 38.0067 32.1267 37.7234 32.01C37.4434 31.8933 37.1267 31.835 36.7734 31.835C36.4201 31.835 36.1017 31.8933 35.8184 32.01C35.5384 32.1267 35.2984 32.295 35.0984 32.515C34.9017 32.735 34.7501 33.0033 34.6434 33.32C34.5367 33.6333 34.4834 33.9883 34.4834 34.385C34.4834 34.7817 34.5367 35.1383 34.6434 35.455C34.7501 35.7683 34.9017 36.035 35.0984 36.255C35.2984 36.4717 35.5384 36.6383 35.8184 36.755C36.1017 36.8717 36.4201 36.93 36.7734 36.93C37.1267 36.93 37.4434 36.8717 37.7234 36.755C38.0067 36.6383 38.2467 36.4717 38.4434 36.255C38.6401 36.035 38.7917 35.7683 38.8984 35.455C39.0051 35.1383 39.0584 34.7817 39.0584 34.385ZM45.9307 36.965V31.805H43.9557C43.9157 32.515 43.8607 33.145 43.7907 33.695C43.724 34.245 43.6457 34.7283 43.5557 35.145C43.4657 35.5617 43.3657 35.9183 43.2557 36.215C43.1457 36.5117 43.0273 36.7617 42.9007 36.965H45.9307ZM48.4057 36.965V39.335C48.4057 39.4517 48.3657 39.545 48.2857 39.615C48.209 39.685 48.1073 39.72 47.9807 39.72H47.1707V38H41.8607V39.335C41.8607 39.4517 41.8207 39.545 41.7407 39.615C41.664 39.685 41.5623 39.72 41.4357 39.72H40.6257V36.965H41.4157C41.509 36.915 41.6007 36.835 41.6907 36.725C41.784 36.615 41.874 36.46 41.9607 36.26C42.0473 36.06 42.129 35.8067 42.2057 35.5C42.2857 35.1933 42.3573 34.82 42.4207 34.38C42.484 33.9367 42.5373 33.4183 42.5807 32.825C42.6273 32.2317 42.6623 31.5467 42.6857 30.77H47.2807V36.965H48.4057ZM55.5318 30.77V38H54.1818V34.84H50.7868V38H49.4368V30.77H50.7868V33.88H54.1818V30.77H55.5318ZM64.0369 34.385C64.0369 34.915 63.9486 35.4067 63.7719 35.86C63.5986 36.31 63.3519 36.7 63.0319 37.03C62.7119 37.36 62.3269 37.6183 61.8769 37.805C61.4269 37.9883 60.9269 38.08 60.3769 38.08C59.8302 38.08 59.3319 37.9883 58.8819 37.805C58.4319 37.6183 58.0452 37.36 57.7219 37.03C57.4019 36.7 57.1536 36.31 56.9769 35.86C56.8002 35.4067 56.7119 34.915 56.7119 34.385C56.7119 33.855 56.8002 33.365 56.9769 32.915C57.1536 32.4617 57.4019 32.07 57.7219 31.74C58.0452 31.41 58.4319 31.1533 58.8819 30.97C59.3319 30.7833 59.8302 30.69 60.3769 30.69C60.7436 30.69 61.0886 30.7333 61.4119 30.82C61.7352 30.9033 62.0319 31.0233 62.3019 31.18C62.5719 31.3333 62.8136 31.5217 63.0269 31.745C63.2436 31.965 63.4269 32.2117 63.5769 32.485C63.7269 32.7583 63.8402 33.055 63.9169 33.375C63.9969 33.695 64.0369 34.0317 64.0369 34.385ZM62.6619 34.385C62.6619 33.9883 62.6086 33.6333 62.5019 33.32C62.3952 33.0033 62.2436 32.735 62.0469 32.515C61.8502 32.295 61.6102 32.1267 61.3269 32.01C61.0469 31.8933 60.7302 31.835 60.3769 31.835C60.0236 31.835 59.7052 31.8933 59.4219 32.01C59.1419 32.1267 58.9019 32.295 58.7019 32.515C58.5052 32.735 58.3536 33.0033 58.2469 33.32C58.1402 33.6333 58.0869 33.9883 58.0869 34.385C58.0869 34.7817 58.1402 35.1383 58.2469 35.455C58.3536 35.7683 58.5052 36.035 58.7019 36.255C58.9019 36.4717 59.1419 36.6383 59.4219 36.755C59.7052 36.8717 60.0236 36.93 60.3769 36.93C60.7302 36.93 61.0469 36.8717 61.3269 36.755C61.6102 36.6383 61.8502 36.4717 62.0469 36.255C62.2436 36.035 62.3952 35.7683 62.5019 35.455C62.6086 35.1383 62.6619 34.7817 62.6619 34.385ZM66.5681 31.84V33.845H69.0981V34.88H66.5681V36.925H69.7781V38H65.2181V30.77H69.7781V31.84H66.5681ZM7.50352 50H6.14852V43.805H3.00852V50H1.65852V42.77H7.50352V50ZM11.4597 46.405C11.7064 46.405 11.9214 46.375 12.1047 46.315C12.288 46.2517 12.4397 46.1633 12.5597 46.05C12.683 45.9333 12.7747 45.7933 12.8347 45.63C12.8947 45.4633 12.9247 45.2783 12.9247 45.075C12.9247 44.8817 12.8947 44.7067 12.8347 44.55C12.7747 44.3933 12.6847 44.26 12.5647 44.15C12.4447 44.04 12.293 43.9567 12.1097 43.9C11.9264 43.84 11.7097 43.81 11.4597 43.81H10.4547V46.405H11.4597ZM11.4597 42.77C11.943 42.77 12.3614 42.8267 12.7147 42.94C13.068 43.0533 13.3597 43.2117 13.5897 43.415C13.8197 43.6183 13.9897 43.8617 14.0997 44.145C14.213 44.4283 14.2697 44.7383 14.2697 45.075C14.2697 45.425 14.2114 45.7467 14.0947 46.04C13.978 46.33 13.803 46.58 13.5697 46.79C13.3364 47 13.043 47.1633 12.6897 47.28C12.3397 47.3967 11.9297 47.455 11.4597 47.455H10.4547V50H9.10969V42.77H11.4597ZM16.6511 43.84V45.845H19.1811V46.88H16.6511V48.925H19.8611V50H15.3011V42.77H19.8611V43.84H16.6511ZM25.623 48.965V43.805H23.648C23.608 44.515 23.553 45.145 23.483 45.695C23.4164 46.245 23.338 46.7283 23.248 47.145C23.158 47.5617 23.058 47.9183 22.948 48.215C22.838 48.5117 22.7197 48.7617 22.593 48.965H25.623ZM28.098 48.965V51.335C28.098 51.4517 28.058 51.545 27.978 51.615C27.9014 51.685 27.7997 51.72 27.673 51.72H26.863V50H21.553V51.335C21.553 51.4517 21.513 51.545 21.433 51.615C21.3564 51.685 21.2547 51.72 21.128 51.72H20.318V48.965H21.108C21.2014 48.915 21.293 48.835 21.383 48.725C21.4764 48.615 21.5664 48.46 21.653 48.26C21.7397 48.06 21.8214 47.8067 21.898 47.5C21.978 47.1933 22.0497 46.82 22.113 46.38C22.1764 45.9367 22.2297 45.4183 22.273 44.825C22.3197 44.2317 22.3547 43.5467 22.378 42.77H26.973V48.965H28.098ZM34.9592 50H33.6042V43.805H31.6292C31.5826 44.7117 31.5159 45.4967 31.4292 46.16C31.3459 46.82 31.2442 47.3833 31.1242 47.85C31.0076 48.3133 30.8726 48.69 30.7192 48.98C30.5692 49.27 30.4042 49.4967 30.2242 49.66C30.0442 49.82 29.8509 49.93 29.6442 49.99C29.4376 50.0467 29.2209 50.075 28.9942 50.075C28.7542 50.075 28.5792 50.0533 28.4692 50.01C28.3592 49.9667 28.3042 49.9033 28.3042 49.82V48.98H28.6892C28.7759 48.98 28.8626 48.97 28.9492 48.95C29.0392 48.93 29.1276 48.8883 29.2142 48.825C29.3042 48.7583 29.3909 48.6633 29.4742 48.54C29.5609 48.4167 29.6426 48.2517 29.7192 48.045C29.7992 47.835 29.8726 47.5783 29.9392 47.275C30.0092 46.9717 30.0709 46.6067 30.1242 46.18C30.1809 45.7533 30.2292 45.26 30.2692 44.7C30.3126 44.1367 30.3442 43.4933 30.3642 42.77H34.9592V50ZM43.4656 46.385C43.4656 46.915 43.3773 47.4067 43.2006 47.86C43.0273 48.31 42.7806 48.7 42.4606 49.03C42.1406 49.36 41.7556 49.6183 41.3056 49.805C40.8556 49.9883 40.3556 50.08 39.8056 50.08C39.259 50.08 38.7606 49.9883 38.3106 49.805C37.8606 49.6183 37.474 49.36 37.1506 49.03C36.8306 48.7 36.5823 48.31 36.4056 47.86C36.229 47.4067 36.1406 46.915 36.1406 46.385C36.1406 45.855 36.229 45.365 36.4056 44.915C36.5823 44.4617 36.8306 44.07 37.1506 43.74C37.474 43.41 37.8606 43.1533 38.3106 42.97C38.7606 42.7833 39.259 42.69 39.8056 42.69C40.1723 42.69 40.5173 42.7333 40.8406 42.82C41.164 42.9033 41.4606 43.0233 41.7306 43.18C42.0006 43.3333 42.2423 43.5217 42.4556 43.745C42.6723 43.965 42.8556 44.2117 43.0056 44.485C43.1556 44.7583 43.269 45.055 43.3456 45.375C43.4256 45.695 43.4656 46.0317 43.4656 46.385ZM42.0906 46.385C42.0906 45.9883 42.0373 45.6333 41.9306 45.32C41.824 45.0033 41.6723 44.735 41.4756 44.515C41.279 44.295 41.039 44.1267 40.7556 44.01C40.4756 43.8933 40.159 43.835 39.8056 43.835C39.4523 43.835 39.134 43.8933 38.8506 44.01C38.5706 44.1267 38.3306 44.295 38.1306 44.515C37.934 44.735 37.7823 45.0033 37.6756 45.32C37.569 45.6333 37.5156 45.9883 37.5156 46.385C37.5156 46.7817 37.569 47.1383 37.6756 47.455C37.7823 47.7683 37.934 48.035 38.1306 48.255C38.3306 48.4717 38.5706 48.6383 38.8506 48.755C39.134 48.8717 39.4523 48.93 39.8056 48.93C40.159 48.93 40.4756 48.8717 40.7556 48.755C41.039 48.6383 41.279 48.4717 41.4756 48.255C41.6723 48.035 41.824 47.7683 41.9306 47.455C42.0373 47.1383 42.0906 46.7817 42.0906 46.385ZM54.2138 50H53.3188C53.1222 50 52.9538 49.9583 52.8138 49.875C52.6772 49.7883 52.5672 49.675 52.4838 49.535L51.0038 47.22C50.9138 47.0733 50.8138 46.97 50.7038 46.91C50.5938 46.85 50.4538 46.82 50.2838 46.82H49.5188V50H48.2538V46.82H47.4888C47.3222 46.82 47.1822 46.85 47.0688 46.91C46.9588 46.97 46.8605 47.0733 46.7738 47.22L45.2938 49.535C45.2105 49.675 45.0988 49.7883 44.9588 49.875C44.8188 49.9583 44.6522 50 44.4588 50H43.5588L45.4488 46.935C45.5655 46.7317 45.6922 46.57 45.8288 46.45C45.9688 46.33 46.1272 46.24 46.3038 46.18C46.1572 46.1233 46.0305 46.045 45.9238 45.945C45.8205 45.8417 45.7205 45.7133 45.6238 45.56L43.7588 42.77H44.8238C44.9605 42.77 45.0855 42.8033 45.1988 42.87C45.3155 42.9367 45.4088 43.03 45.4788 43.15L46.9588 45.44C47.0488 45.5867 47.1472 45.6833 47.2538 45.73C47.3605 45.7767 47.4822 45.8 47.6188 45.8H48.2538V42.77H49.5188V45.8H50.1588C50.2955 45.8 50.4155 45.7767 50.5188 45.73C50.6255 45.6833 50.7255 45.5867 50.8188 45.44L52.2938 43.15C52.3638 43.03 52.4555 42.9367 52.5688 42.87C52.6855 42.8033 52.8138 42.77 52.9538 42.77H54.0138L52.1488 45.56C52.0522 45.7133 51.9522 45.8417 51.8488 45.945C51.7455 46.045 51.6188 46.1233 51.4688 46.18C51.6488 46.24 51.8072 46.33 51.9438 46.45C52.0838 46.57 52.2122 46.7317 52.3288 46.935L54.2138 50ZM56.3874 43.84V45.845H58.9174V46.88H56.3874V48.925H59.5974V50H55.0374V42.77H59.5974V43.84H56.3874ZM66.8844 42.77V50H65.5344V46.84H62.1394V50H60.7894V42.77H62.1394V45.88H65.5344V42.77H66.8844ZM74.5895 42.77V50H73.2395V45.47C73.2395 45.3 73.2428 45.1217 73.2495 44.935C73.2595 44.7483 73.2795 44.55 73.3095 44.34C73.2428 44.5267 73.1695 44.7 73.0895 44.86C73.0128 45.0167 72.9378 45.155 72.8645 45.275L70.0995 49.585C70.0695 49.635 70.0328 49.685 69.9895 49.735C69.9495 49.785 69.9045 49.83 69.8545 49.87C69.8045 49.9067 69.7495 49.9383 69.6895 49.965C69.6295 49.9883 69.5678 50 69.5045 50H68.4945V42.77H69.8445V47.3C69.8445 47.47 69.8395 47.65 69.8295 47.84C69.8228 48.0267 69.8045 48.225 69.7745 48.435C69.8411 48.2483 69.9128 48.075 69.9895 47.915C70.0695 47.755 70.1478 47.615 70.2245 47.495L72.9845 43.185C73.0145 43.135 73.0495 43.085 73.0895 43.035C73.1328 42.985 73.1795 42.9417 73.2295 42.905C73.2795 42.865 73.3328 42.8333 73.3895 42.81C73.4495 42.7833 73.5128 42.77 73.5795 42.77H74.5895ZM77.5495 43.84V45.845H80.0795V46.88H77.5495V48.925H80.7595V50H76.1995V42.77H80.7595V43.84H77.5495Z" fill="#212121"/>
</svg>
