<svg width="16" height="16" viewBox="0 0 16 16" fill="none" xmlns="http://www.w3.org/2000/svg">
<circle cx="7.875" cy="7.875" r="7.59375" transform="rotate(90 7.875 7.875)" stroke="black" stroke-width="0.5625"/>
<path d="M7.875 11.4547L8.6869 10.0484L7.0631 10.0484L7.875 11.4547ZM7.73438 5.01147L7.73438 5.81687L8.01563 5.81687L8.01562 5.01147L7.73438 5.01147ZM7.73438 7.42767L7.73438 9.03846L8.01563 9.03846L8.01563 7.42767L7.73438 7.42767ZM7.875 11.4547L9.4988 8.64216L6.2512 8.64216L7.875 11.4547ZM7.59375 5.01147L7.59375 5.81687L8.15625 5.81687L8.15625 5.01147L7.59375 5.01147ZM7.59375 7.42767L7.59375 9.03846L8.15625 9.03846L8.15625 7.42767L7.59375 7.42767Z" fill="#212121"/>
</svg>
