<svg width="75" height="75" viewBox="0 0 75 75" fill="none" xmlns="http://www.w3.org/2000/svg">
<rect x="0.5" y="0.5" width="74" height="74" rx="37" stroke="#2E1E25" stroke-dasharray="2 2"/>
<path fill-rule="evenodd" clip-rule="evenodd" d="M51.08 30.2489L40.4133 22.1403C38.4933 20.5733 35.2933 20.6273 33.3733 22.2656L22.7067 31.1297C21.64 32.0394 21 33.3192 21 34.6626V48.2008C21 50.8509 23.3467 53 26.3333 53H47.6667C50.44 53 53 50.8509 53 48.2008V33.909C53 32.5001 52.1467 31.1625 51.08 30.2489ZM35.7203 24.6212C36.5736 24.0757 37.427 24.0564 38.067 24.5788L48.7336 32.6893C49.1603 32.9938 49.3736 33.4391 49.3736 33.9093V48.2011C49.3736 49.0838 48.5203 49.8008 47.667 49.8008H44.0403C44.0403 49.797 44.0403 49.7931 44.0403 49.7893V41.8445C44.0403 40.0771 42.547 38.645 40.4136 38.645H33.3736C31.4536 38.645 29.9603 40.0771 29.9603 41.8445V49.7893C29.9603 49.7931 29.9603 49.797 29.9603 49.8008H26.3336C25.267 49.8008 24.627 49.0838 24.627 48.2011V34.663C24.627 34.2158 24.8403 33.7879 25.0536 33.4853L35.7203 24.6212ZM33.373 41.8438H40.413V49.7885H33.373V41.8438Z" fill="#2E1E25"/>
</svg>
