<svg width="75" height="75" viewBox="0 0 75 75" fill="none" xmlns="http://www.w3.org/2000/svg">
<rect x="0.5" y="0.5" width="74" height="74" rx="37" stroke="#2E1E25" stroke-dasharray="2 2"/>
<path d="M33.9997 28.6667C35.4142 28.6667 36.7707 29.2286 37.7709 30.2288C38.7711 31.229 39.333 32.5855 39.333 34C39.333 35.4145 38.7711 36.7711 37.7709 37.7713C36.7707 38.7715 35.4142 39.3334 33.9997 39.3334C32.5852 39.3334 31.2286 38.7715 30.2284 37.7713C29.2282 36.7711 28.6663 35.4145 28.6663 34C28.6663 32.5855 29.2282 31.229 30.2284 30.2288C31.2286 29.2286 32.5852 28.6667 33.9997 28.6667ZM33.9997 42C37.5597 42 44.6663 43.7867 44.6663 47.3334V50H23.333V47.3334C23.333 43.7867 30.4397 42 33.9997 42ZM44.3463 29.1467C47.0397 32.08 47.0397 36.1467 44.3463 38.84L42.1063 36.5867C43.2263 35.0134 43.2263 32.9734 42.1063 31.4L44.3463 29.1467ZM48.7597 24.6667C53.9997 30.0667 53.9597 38.1467 48.7597 43.3334L46.5863 41.16C50.2797 36.92 50.2797 30.8667 46.5863 26.84L48.7597 24.6667Z" fill="#2E1E25"/>
</svg>
