<svg width="75" height="75" viewBox="0 0 75 75" fill="none" xmlns="http://www.w3.org/2000/svg">
<rect x="0.5" y="0.5" width="74" height="74" rx="37" stroke="#2E1E25" stroke-dasharray="2 2"/>
<g clip-path="url(#clip0_574_464)">
<path d="M37.9937 24.6667C30.627 24.6667 24.667 30.6334 24.667 38C24.667 45.3667 30.627 51.3334 37.9937 51.3334C45.3603 51.3334 51.3337 45.3667 51.3337 38C51.3337 30.6334 45.3603 24.6667 37.9937 24.6667ZM38.0003 48.6667C32.107 48.6667 27.3337 43.8934 27.3337 38C27.3337 32.1067 32.107 27.3334 38.0003 27.3334C43.8937 27.3334 48.667 32.1067 48.667 38C48.667 43.8934 43.8937 48.6667 38.0003 48.6667Z" fill="#2E1E25"/>
<path d="M38.667 31.3333H36.667V39.3333L43.6603 43.5333L44.667 41.8933L38.667 38.3333V31.3333Z" fill="#2E1E25"/>
</g>
<defs>
<clipPath id="clip0_574_464">
<rect width="32" height="32" fill="white" transform="translate(22 22)"/>
</clipPath>
</defs>
</svg>
