<svg width="33" height="34" viewBox="0 0 33 34" fill="none" xmlns="http://www.w3.org/2000/svg">
<path fill-rule="evenodd" clip-rule="evenodd" d="M21.8454 0.93335H12.0218C3.05639 0.93335 0.933594 3.05828 0.933594 12.0327V21.8661C0.933594 30.8406 3.05639 32.9655 12.0218 32.9655H21.8454C30.8108 32.9655 32.9336 30.8406 32.9336 21.8661V12.0327C32.9336 3.05828 30.8108 0.93335 21.8454 0.93335ZM26.4297 11.1058C27.1298 11.1058 27.2879 11.4675 27.1298 11.9648C26.8831 13.1046 24.8344 16.128 24.1998 17.0644C24.0793 17.2424 24.0098 17.3449 24.0134 17.3449C23.7649 17.7519 23.6746 17.9327 24.0134 18.3848C24.1358 18.552 24.3955 18.807 24.6922 19.0985C24.9975 19.3983 25.3419 19.7367 25.6167 20.0576C26.6104 21.1879 27.3782 22.1373 27.5815 22.7929C27.7621 23.4485 27.446 23.7875 26.7685 23.7875H24.4424C23.826 23.7875 23.5083 23.4332 22.8311 22.678C22.5407 22.3542 22.1843 21.9567 21.7099 21.4818C20.3323 20.148 19.7226 19.9672 19.3839 19.9672C18.9096 19.9672 18.7741 20.0802 18.7741 20.7584V22.8607C18.7741 23.4259 18.5935 23.7649 17.103 23.7649C14.6414 23.7649 11.9089 22.273 9.98937 19.4925C7.09875 15.4235 6.30835 12.3491 6.30835 11.7388C6.30835 11.3997 6.42126 11.0832 7.09875 11.0832H9.44738C10.0345 11.0832 10.2604 11.3319 10.4862 11.9874C11.6379 15.3104 13.5575 18.2266 14.3479 18.2266C14.6414 18.2266 14.7769 18.0909 14.7769 17.3449V13.9089C14.7212 12.9322 14.3815 12.5067 14.1297 12.1912C13.9735 11.9955 13.851 11.8421 13.851 11.6257C13.851 11.3545 14.0769 11.0832 14.4382 11.0832H18.0966C18.5935 11.0832 18.7741 11.3545 18.7741 11.9422V16.5764C18.7741 17.0737 18.9774 17.2545 19.1354 17.2545C19.429 17.2545 19.6774 17.0737 20.2194 16.5311C21.8906 14.6549 23.0875 11.7614 23.0875 11.7614C23.2455 11.4223 23.5165 11.1058 24.1037 11.1058H26.4297Z" fill="#2E1E25"/>
</svg>
